<mxfile host="app.diagrams.net" modified="2022-12-13T03:20:17.486Z" agent="5.0 (X11; Linux x86_64) AppleWebKit/537.36 (KHTML, like Gecko) Chrome/108.0.0.0 Safari/537.36" version="20.6.0" etag="7g_ydq9LTY6X4eDQP-3W" type="github">
  <diagram id="CfL78ZpqyKhHBdBOKc-Q" name="第 1 页">
    <mxGraphModel dx="2415" dy="800" grid="1" gridSize="10" guides="1" tooltips="1" connect="1" arrows="1" fold="1" page="1" pageScale="1" pageWidth="827" pageHeight="1169" math="0" shadow="0">
      <root>
        <mxCell id="0" />
        <mxCell id="1" parent="0" />
        <mxCell id="An0dyovIvbsDwVQfOLjY-1" value="" style="shape=table;startSize=0;container=1;collapsible=0;childLayout=tableLayout;" vertex="1" parent="1">
          <mxGeometry x="-390" y="130" width="814" height="95" as="geometry" />
        </mxCell>
        <mxCell id="An0dyovIvbsDwVQfOLjY-2" value="" style="shape=tableRow;horizontal=0;startSize=0;swimlaneHead=0;swimlaneBody=0;top=0;left=0;bottom=0;right=0;collapsible=0;dropTarget=0;fillColor=none;points=[[0,0.5],[1,0.5]];portConstraint=eastwest;" vertex="1" parent="An0dyovIvbsDwVQfOLjY-1">
          <mxGeometry width="814" height="50" as="geometry" />
        </mxCell>
        <mxCell id="An0dyovIvbsDwVQfOLjY-3" value="&lt;font style=&quot;font-size: 24px;&quot;&gt;id&lt;/font&gt;" style="shape=partialRectangle;html=1;whiteSpace=wrap;connectable=0;overflow=hidden;fillColor=none;top=0;left=0;bottom=0;right=0;pointerEvents=1;" vertex="1" parent="An0dyovIvbsDwVQfOLjY-2">
          <mxGeometry width="164" height="50" as="geometry">
            <mxRectangle width="164" height="50" as="alternateBounds" />
          </mxGeometry>
        </mxCell>
        <mxCell id="An0dyovIvbsDwVQfOLjY-4" value="&lt;font style=&quot;font-size: 24px;&quot;&gt;racename&lt;/font&gt;" style="shape=partialRectangle;html=1;whiteSpace=wrap;connectable=0;overflow=hidden;fillColor=none;top=0;left=0;bottom=0;right=0;pointerEvents=1;" vertex="1" parent="An0dyovIvbsDwVQfOLjY-2">
          <mxGeometry x="164" width="164" height="50" as="geometry">
            <mxRectangle width="164" height="50" as="alternateBounds" />
          </mxGeometry>
        </mxCell>
        <mxCell id="An0dyovIvbsDwVQfOLjY-5" value="&lt;font style=&quot;font-size: 24px;&quot;&gt;area&lt;/font&gt;" style="shape=partialRectangle;html=1;whiteSpace=wrap;connectable=0;overflow=hidden;fillColor=none;top=0;left=0;bottom=0;right=0;pointerEvents=1;" vertex="1" parent="An0dyovIvbsDwVQfOLjY-2">
          <mxGeometry x="328" width="161" height="50" as="geometry">
            <mxRectangle width="161" height="50" as="alternateBounds" />
          </mxGeometry>
        </mxCell>
        <mxCell id="An0dyovIvbsDwVQfOLjY-6" value="&lt;font style=&quot;font-size: 24px;&quot;&gt;gpxfilename&lt;/font&gt;" style="shape=partialRectangle;html=1;whiteSpace=wrap;connectable=0;overflow=hidden;fillColor=none;top=0;left=0;bottom=0;right=0;pointerEvents=1;" vertex="1" parent="An0dyovIvbsDwVQfOLjY-2">
          <mxGeometry x="489" width="164" height="50" as="geometry">
            <mxRectangle width="164" height="50" as="alternateBounds" />
          </mxGeometry>
        </mxCell>
        <mxCell id="An0dyovIvbsDwVQfOLjY-7" value="&lt;font style=&quot;font-size: 24px;&quot;&gt;gpxfilepath&lt;/font&gt;" style="shape=partialRectangle;html=1;whiteSpace=wrap;connectable=0;overflow=hidden;fillColor=none;top=0;left=0;bottom=0;right=0;pointerEvents=1;" vertex="1" parent="An0dyovIvbsDwVQfOLjY-2">
          <mxGeometry x="653" width="161" height="50" as="geometry">
            <mxRectangle width="161" height="50" as="alternateBounds" />
          </mxGeometry>
        </mxCell>
        <mxCell id="An0dyovIvbsDwVQfOLjY-8" value="" style="shape=tableRow;horizontal=0;startSize=0;swimlaneHead=0;swimlaneBody=0;top=0;left=0;bottom=0;right=0;collapsible=0;dropTarget=0;fillColor=none;points=[[0,0.5],[1,0.5]];portConstraint=eastwest;" vertex="1" parent="An0dyovIvbsDwVQfOLjY-1">
          <mxGeometry y="50" width="814" height="45" as="geometry" />
        </mxCell>
        <mxCell id="An0dyovIvbsDwVQfOLjY-9" style="shape=partialRectangle;html=1;whiteSpace=wrap;connectable=0;overflow=hidden;fillColor=none;top=0;left=0;bottom=0;right=0;pointerEvents=1;" vertex="1" parent="An0dyovIvbsDwVQfOLjY-8">
          <mxGeometry width="164" height="45" as="geometry">
            <mxRectangle width="164" height="45" as="alternateBounds" />
          </mxGeometry>
        </mxCell>
        <mxCell id="An0dyovIvbsDwVQfOLjY-10" value="" style="shape=partialRectangle;html=1;whiteSpace=wrap;connectable=0;overflow=hidden;fillColor=none;top=0;left=0;bottom=0;right=0;pointerEvents=1;" vertex="1" parent="An0dyovIvbsDwVQfOLjY-8">
          <mxGeometry x="164" width="164" height="45" as="geometry">
            <mxRectangle width="164" height="45" as="alternateBounds" />
          </mxGeometry>
        </mxCell>
        <mxCell id="An0dyovIvbsDwVQfOLjY-11" value="" style="shape=partialRectangle;html=1;whiteSpace=wrap;connectable=0;overflow=hidden;fillColor=none;top=0;left=0;bottom=0;right=0;pointerEvents=1;" vertex="1" parent="An0dyovIvbsDwVQfOLjY-8">
          <mxGeometry x="328" width="161" height="45" as="geometry">
            <mxRectangle width="161" height="45" as="alternateBounds" />
          </mxGeometry>
        </mxCell>
        <mxCell id="An0dyovIvbsDwVQfOLjY-12" value="" style="shape=partialRectangle;html=1;whiteSpace=wrap;connectable=0;overflow=hidden;fillColor=none;top=0;left=0;bottom=0;right=0;pointerEvents=1;" vertex="1" parent="An0dyovIvbsDwVQfOLjY-8">
          <mxGeometry x="489" width="164" height="45" as="geometry">
            <mxRectangle width="164" height="45" as="alternateBounds" />
          </mxGeometry>
        </mxCell>
        <mxCell id="An0dyovIvbsDwVQfOLjY-13" value="" style="shape=partialRectangle;html=1;whiteSpace=wrap;connectable=0;overflow=hidden;fillColor=none;top=0;left=0;bottom=0;right=0;pointerEvents=1;" vertex="1" parent="An0dyovIvbsDwVQfOLjY-8">
          <mxGeometry x="653" width="161" height="45" as="geometry">
            <mxRectangle width="161" height="45" as="alternateBounds" />
          </mxGeometry>
        </mxCell>
        <mxCell id="An0dyovIvbsDwVQfOLjY-14" value="&lt;font style=&quot;font-size: 36px;&quot;&gt;t_race_gpxfiles&lt;/font&gt;" style="text;html=1;strokeColor=none;fillColor=none;align=center;verticalAlign=middle;whiteSpace=wrap;rounded=0;" vertex="1" parent="1">
          <mxGeometry x="-130" y="80" width="160" height="30" as="geometry" />
        </mxCell>
        <mxCell id="An0dyovIvbsDwVQfOLjY-15" value="" style="shape=table;startSize=0;container=1;collapsible=0;childLayout=tableLayout;fontSize=24;" vertex="1" parent="1">
          <mxGeometry x="-390" y="370" width="811" height="80" as="geometry" />
        </mxCell>
        <mxCell id="An0dyovIvbsDwVQfOLjY-16" value="" style="shape=tableRow;horizontal=0;startSize=0;swimlaneHead=0;swimlaneBody=0;top=0;left=0;bottom=0;right=0;collapsible=0;dropTarget=0;fillColor=none;points=[[0,0.5],[1,0.5]];portConstraint=eastwest;fontSize=24;" vertex="1" parent="An0dyovIvbsDwVQfOLjY-15">
          <mxGeometry width="811" height="40" as="geometry" />
        </mxCell>
        <mxCell id="An0dyovIvbsDwVQfOLjY-17" value="racename" style="shape=partialRectangle;html=1;whiteSpace=wrap;connectable=0;overflow=hidden;fillColor=none;top=0;left=0;bottom=0;right=0;pointerEvents=1;fontSize=24;" vertex="1" parent="An0dyovIvbsDwVQfOLjY-16">
          <mxGeometry width="203" height="40" as="geometry">
            <mxRectangle width="203" height="40" as="alternateBounds" />
          </mxGeometry>
        </mxCell>
        <mxCell id="An0dyovIvbsDwVQfOLjY-18" value="rank" style="shape=partialRectangle;html=1;whiteSpace=wrap;connectable=0;overflow=hidden;fillColor=none;top=0;left=0;bottom=0;right=0;pointerEvents=1;fontSize=24;" vertex="1" parent="An0dyovIvbsDwVQfOLjY-16">
          <mxGeometry x="203" width="203" height="40" as="geometry">
            <mxRectangle width="203" height="40" as="alternateBounds" />
          </mxGeometry>
        </mxCell>
        <mxCell id="An0dyovIvbsDwVQfOLjY-19" value="gpxfilename" style="shape=partialRectangle;html=1;whiteSpace=wrap;connectable=0;overflow=hidden;fillColor=none;top=0;left=0;bottom=0;right=0;pointerEvents=1;fontSize=24;" vertex="1" parent="An0dyovIvbsDwVQfOLjY-16">
          <mxGeometry x="406" width="202" height="40" as="geometry">
            <mxRectangle width="202" height="40" as="alternateBounds" />
          </mxGeometry>
        </mxCell>
        <mxCell id="An0dyovIvbsDwVQfOLjY-20" value="arrivingtime" style="shape=partialRectangle;html=1;whiteSpace=wrap;connectable=0;overflow=hidden;fillColor=none;top=0;left=0;bottom=0;right=0;pointerEvents=1;fontSize=24;" vertex="1" parent="An0dyovIvbsDwVQfOLjY-16">
          <mxGeometry x="608" width="203" height="40" as="geometry">
            <mxRectangle width="203" height="40" as="alternateBounds" />
          </mxGeometry>
        </mxCell>
        <mxCell id="An0dyovIvbsDwVQfOLjY-21" value="" style="shape=tableRow;horizontal=0;startSize=0;swimlaneHead=0;swimlaneBody=0;top=0;left=0;bottom=0;right=0;collapsible=0;dropTarget=0;fillColor=none;points=[[0,0.5],[1,0.5]];portConstraint=eastwest;fontSize=24;" vertex="1" parent="An0dyovIvbsDwVQfOLjY-15">
          <mxGeometry y="40" width="811" height="40" as="geometry" />
        </mxCell>
        <mxCell id="An0dyovIvbsDwVQfOLjY-22" style="shape=partialRectangle;html=1;whiteSpace=wrap;connectable=0;overflow=hidden;fillColor=none;top=0;left=0;bottom=0;right=0;pointerEvents=1;fontSize=24;" vertex="1" parent="An0dyovIvbsDwVQfOLjY-21">
          <mxGeometry width="203" height="40" as="geometry">
            <mxRectangle width="203" height="40" as="alternateBounds" />
          </mxGeometry>
        </mxCell>
        <mxCell id="An0dyovIvbsDwVQfOLjY-23" value="" style="shape=partialRectangle;html=1;whiteSpace=wrap;connectable=0;overflow=hidden;fillColor=none;top=0;left=0;bottom=0;right=0;pointerEvents=1;fontSize=24;" vertex="1" parent="An0dyovIvbsDwVQfOLjY-21">
          <mxGeometry x="203" width="203" height="40" as="geometry">
            <mxRectangle width="203" height="40" as="alternateBounds" />
          </mxGeometry>
        </mxCell>
        <mxCell id="An0dyovIvbsDwVQfOLjY-24" value="" style="shape=partialRectangle;html=1;whiteSpace=wrap;connectable=0;overflow=hidden;fillColor=none;top=0;left=0;bottom=0;right=0;pointerEvents=1;fontSize=24;" vertex="1" parent="An0dyovIvbsDwVQfOLjY-21">
          <mxGeometry x="406" width="202" height="40" as="geometry">
            <mxRectangle width="202" height="40" as="alternateBounds" />
          </mxGeometry>
        </mxCell>
        <mxCell id="An0dyovIvbsDwVQfOLjY-25" value="" style="shape=partialRectangle;html=1;whiteSpace=wrap;connectable=0;overflow=hidden;fillColor=none;top=0;left=0;bottom=0;right=0;pointerEvents=1;fontSize=24;" vertex="1" parent="An0dyovIvbsDwVQfOLjY-21">
          <mxGeometry x="608" width="203" height="40" as="geometry">
            <mxRectangle width="203" height="40" as="alternateBounds" />
          </mxGeometry>
        </mxCell>
        <mxCell id="An0dyovIvbsDwVQfOLjY-26" value="&lt;font style=&quot;font-size: 36px;&quot;&gt;t_race_rank&lt;/font&gt;" style="text;html=1;strokeColor=none;fillColor=none;align=center;verticalAlign=middle;whiteSpace=wrap;rounded=0;" vertex="1" parent="1">
          <mxGeometry x="-120" y="320" width="160" height="30" as="geometry" />
        </mxCell>
      </root>
    </mxGraphModel>
  </diagram>
</mxfile>
